<svg width="172" height="165" viewBox="0 0 172 165" fill="none" xmlns="http://www.w3.org/2000/svg">
<path d="M42.0186 5.37911C43.4074 6.75388 44.8707 8.04778 46.4982 9.12952C54.7998 14.6485 76.0488 39.3122 118.675 22.5008C183.73 5.37911 179.628 70.762 153.398 78.0199C130.402 88.538 106.815 99.3148 118.276 127.204C128.009 143.233 125.41 172.133 103.596 162.264C81.7827 152.395 69.1812 129.281 40.5492 131.967C11.9172 134.654 -8.31496 121.972 4.35934 99.3148C17.0336 76.6574 32.1868 62.0365 12.8456 36.7989C-5.95863 12.2633 25.7152 -10.7594 42.0186 5.37911Z" fill="#FFDED1"/>
<path d="M94.1339 39.9846C93.8265 39.6751 93.6506 39.2587 93.6431 38.8225C93.6355 38.3863 93.7968 37.9641 94.0933 37.6441L105.031 25.8384C105.186 25.6712 105.373 25.537 105.581 25.444C105.79 25.351 106.014 25.301 106.242 25.297C106.47 25.2931 106.697 25.3352 106.908 25.421C107.119 25.5068 107.311 25.6344 107.471 25.7961L108.415 26.747C108.576 26.9087 108.702 27.1013 108.787 27.3131C108.871 27.5249 108.912 27.7516 108.906 27.9795C108.9 28.2074 108.849 28.4318 108.754 28.6393C108.66 28.8467 108.524 29.0329 108.356 29.1867L96.4742 40.0415C96.1521 40.3358 95.7287 40.4942 95.2926 40.4836C94.8564 40.473 94.4413 40.2942 94.1339 39.9846Z" fill="#E25C2A"/>
<path d="M87.2107 35.9604C86.9492 35.8445 86.7426 35.632 86.6341 35.3674C86.5256 35.1027 86.5236 34.8064 86.6285 34.5403L90.4994 24.7231C90.5543 24.584 90.6367 24.4575 90.7417 24.3511C90.8466 24.2447 90.9721 24.1606 91.1104 24.1039C91.2487 24.0473 91.397 24.0191 91.5465 24.0212C91.6959 24.0233 91.8434 24.0557 91.9801 24.1162L92.7833 24.4723C92.92 24.5329 93.043 24.6204 93.1449 24.7297C93.2469 24.8391 93.3257 24.9679 93.3766 25.1084C93.4274 25.249 93.4494 25.3983 93.441 25.5476C93.4327 25.6968 93.3943 25.8428 93.3281 25.9769L88.6542 35.438C88.5275 35.6945 88.3065 35.8921 88.0375 35.9895C87.7685 36.0868 87.4722 36.0764 87.2107 35.9604Z" fill="#E25C2A"/>
<path d="M80.1668 37.565C79.2747 37.7256 78.3797 36.9602 78.1376 35.8298L73.8445 15.7596C73.5884 14.5602 74.1627 13.4194 75.109 13.2488L76.4278 13.0115C77.374 12.8411 78.3107 13.7102 78.4885 14.9234L81.4632 35.2309C81.6307 36.375 81.0589 37.4044 80.1668 37.565Z" fill="#E25C2A"/>
<path d="M149.557 56.4532L130.623 54.0124C130.304 53.9784 129.983 54.0424 129.701 54.1958C129.42 54.3493 129.192 54.5849 129.048 54.8713L124.013 64.8123L102.938 106.962C102.714 107.407 102.339 107.758 101.879 107.952C101.42 108.145 100.907 108.169 100.432 108.018L43.227 89.7589C43.0692 89.7085 42.9017 89.6963 42.7383 89.7233C42.5749 89.7503 42.4203 89.8158 42.2871 89.9142C42.1539 90.0126 42.046 90.1413 41.9722 90.2896C41.8984 90.4379 41.8609 90.6016 41.8628 90.7672L41.889 93.1427C41.8922 93.4729 41.9995 93.7938 42.1957 94.0595C42.3919 94.3252 42.6669 94.5222 42.9816 94.6225L103.506 113.941C104.18 114.156 104.786 114.546 105.262 115.071C105.737 115.596 106.065 116.237 106.213 116.93L106.233 117.024C106.76 119.916 103.91 122.29 101.102 121.438L34.7351 100.227C34.3947 100.119 34.1014 99.8974 33.9039 99.5998C33.7064 99.3021 33.6164 98.9459 33.6488 98.5902L38.8428 41.8715C38.8689 41.5791 38.9562 41.2954 39.0991 41.0389C39.242 40.7824 39.4372 40.5588 39.672 40.3827C39.9069 40.2065 40.1762 40.0817 40.4625 40.0164C40.7487 39.951 41.0455 39.9466 41.3335 40.0034L120.84 55.5567L125.96 45.3797C126.108 45.0921 126.341 44.8568 126.627 44.7055C126.912 44.5543 127.238 44.4943 127.559 44.5338L150.745 47.5029C150.95 47.5288 151.149 47.5952 151.329 47.6982C151.509 47.8013 151.666 47.939 151.793 48.1034C151.919 48.2678 152.011 48.4556 152.064 48.656C152.118 48.8563 152.131 49.0652 152.102 49.2706L151.312 55.1025C151.257 55.5137 151.042 55.8865 150.713 56.1395C150.384 56.3926 149.969 56.5054 149.557 56.4532Z" fill="#E25C2A"/>
<path d="M42.0488 80.0479L48.5273 82.1156L54.7417 50.6032L44.796 49.076L42.0488 80.0479Z" fill="#FFDED1"/>
<path d="M92.8799 96.2723L99.3584 98.3402L116.113 63.0533L108.977 61.3247L92.8799 96.2723Z" fill="#FFDED1"/>
<path d="M67.9626 88.3192L73.9428 90.228L86.7525 56.9768L76.9659 54.9513L67.9626 88.3192Z" fill="#FFDED1"/>
<path d="M60.3827 51.8546L70.1693 53.8801L61.4843 86.2514L55.0059 84.1835L60.3827 51.8546Z" fill="#FFDED1"/>
<path d="M102.837 59.9143L93.0508 57.8888L80.9197 92.4548L86.8999 94.3635L102.837 59.9143Z" fill="#FFDED1"/>
<path d="M43.299 120.705C47.4882 120.705 50.8842 117.309 50.8842 113.119C50.8842 108.93 47.4882 105.534 43.299 105.534C39.1099 105.534 35.7139 108.93 35.7139 113.119C35.7139 117.309 39.1099 120.705 43.299 120.705Z" fill="#CC4613"/>
<path d="M90.6416 135.815C94.8307 135.815 98.2267 132.419 98.2267 128.23C98.2267 124.041 94.8307 120.645 90.6416 120.645C86.4524 120.645 83.0564 124.041 83.0564 128.23C83.0564 132.419 86.4524 135.815 90.6416 135.815Z" fill="#CC4613"/>
<path d="M152.963 47.1891L132.981 44.6873C132.87 44.6735 132.769 44.752 132.755 44.8628L131.544 54.5374C131.53 54.6482 131.609 54.7492 131.719 54.7631L151.702 57.2648C151.813 57.2787 151.914 57.2001 151.928 57.0893L153.139 47.4148C153.153 47.304 153.074 47.2029 152.963 47.1891Z" fill="#F3652F"/>
</svg>
