<svg width="279" height="172" viewBox="0 0 279 172" fill="none" xmlns="http://www.w3.org/2000/svg">
<g clip-path="url(#clip0)">
<circle cx="140.076" cy="82.4318" r="77.8203" fill="#FFD7C8"/>
<path d="M195.559 63.1782C212.149 63.26 225.577 76.8708 225.658 93.6858C225.658 124.492 170.329 155 170.329 155C170.329 155 115 124.044 115 93.6858C115 76.8371 128.476 63.1782 145.099 63.1782C155.275 63.0977 164.788 68.2853 170.329 76.9364C175.908 68.3274 185.397 63.1533 195.559 63.1782Z" fill="#E25C2A"/>
<path d="M200.559 57.0009C217.149 57.0828 230.577 70.6936 230.658 87.5086C230.658 118.315 175.329 148.823 175.329 148.823C175.329 148.823 120 117.867 120 87.5086C120 70.6598 133.476 57.0009 150.099 57.0009C160.275 56.9205 169.788 62.1081 175.329 70.7591C180.908 62.1501 190.397 56.976 200.559 57.0009Z" fill="#E25C2A" fill-opacity="0.2"/>
</g>
<circle cx="43.2337" cy="66.8678" r="10.9525" fill="#FFB79C"/>
<circle cx="206.656" cy="4.32335" r="4.32335" fill="#DA4F1A"/>
<circle cx="252.195" cy="117.883" r="5.47624" fill="#CA4817"/>
<circle cx="270.93" cy="85.8906" r="8.07025" fill="#FFA27E"/>
<circle cx="10.0878" cy="161.117" r="10.0878" fill="#FA7543"/>
<circle cx="75.4762" cy="124.476" r="5.47624" fill="#E25C2A"/>
<defs>
<clipPath id="clip0">
<rect x="62.2559" y="4.61157" width="155.641" height="155.641" rx="77.8203" fill="white"/>
</clipPath>
</defs>
</svg>
