<svg width="266" height="197" viewBox="0 0 266 197" fill="none" xmlns="http://www.w3.org/2000/svg">
<path d="M77.105 32.0114C77.105 32.0114 107.129 54.7954 152.773 12.1934C193.309 -25.6403 226.407 34.0528 226.639 62.6389C226.939 99.6689 186.103 129.299 205.92 153.621C225.738 177.942 166.619 218.106 134.757 183.347C95.121 140.108 84.3833 175.24 61.7912 175.24C45.5766 175.24 12.2864 134.951 34.7669 104.977C53.684 79.7541 43.367 71.3833 38.3708 62.6389C31.1637 50.0275 48.2792 15.7969 77.105 32.0114Z" fill="#FFDFD2"/>
<path d="M197.642 82.3604C199.255 82.96 201.019 82.9999 202.697 82.6148C209.727 81.0012 233.9 76.7286 229.699 95.4604C228.785 99.1768 214.627 119.99 234.789 127.588C236.266 128.151 237.829 128.459 239.41 128.498C245.617 128.625 257.919 127.16 263.067 121.919C269.286 115.588 262.492 118.59 262.492 118.59C262.492 118.59 238.848 128.908 230.496 117.962C229.566 116.744 228.975 114.975 228.805 113.452C228.511 110.811 229.684 107.322 231.224 104.285C233.308 100.174 243.316 81.6809 221.588 76.2937C216.583 75.1017 209.313 74.031 199.939 77.9776C194.472 80.2795 195.683 81.6326 197.642 82.3604Z" fill="#FE7F4F"/>
<path d="M202.48 75.4568L196.186 77.8121C194.014 78.6252 192.912 81.0454 193.725 83.2178L194.037 84.0513C194.85 86.2238 197.27 87.3257 199.443 86.5127L205.736 84.1574C207.908 83.3443 209.01 80.9241 208.197 78.7517L207.885 77.9182C207.072 75.7457 204.652 74.6437 202.48 75.4568Z" fill="#E25C2A"/>
<path d="M163.85 82.2722L143.095 90.0399C142.008 90.4464 141.457 91.6565 141.864 92.7428L141.946 92.9612C142.352 94.0474 143.562 94.5984 144.649 94.1919L165.403 86.4241C166.49 86.0176 167.041 84.8075 166.634 83.7213L166.552 83.5028C166.146 82.4166 164.936 81.8656 163.85 82.2722Z" fill="white"/>
<path d="M169.643 97.749L148.888 105.517C147.801 105.923 147.25 107.133 147.657 108.22L147.739 108.438C148.145 109.524 149.355 110.075 150.442 109.669L171.197 101.901C172.283 101.494 172.834 100.284 172.427 99.1982L172.345 98.9797C171.939 97.8935 170.729 97.3425 169.643 97.749Z" fill="white"/>
<path d="M188.805 71.71L171.983 78.0056C169.811 78.8187 168.709 81.2389 169.522 83.4113L175.265 98.7564C176.078 100.929 178.498 102.031 180.671 101.218L197.492 94.9222C199.665 94.1091 200.767 91.6889 199.954 89.5165L194.21 74.1714C193.397 71.9989 190.977 70.8969 188.805 71.71Z" fill="#EE6A39"/>
<path d="M173.721 75.7358L156.899 82.0314C154.727 82.8444 153.625 85.2646 154.438 87.4371L161.29 105.744C162.103 107.917 164.523 109.019 166.695 108.206L183.517 101.91C185.689 101.097 186.791 98.6769 185.978 96.5044L179.126 78.1971C178.313 76.0247 175.893 74.9227 173.721 75.7358Z" fill="#E25C2A"/>
<path d="M176.354 72.0205L176.222 72.0698C174.774 72.6119 174.039 74.2253 174.581 75.6736L184.18 101.32C184.722 102.769 186.335 103.503 187.783 102.961L187.915 102.912C189.364 102.37 190.098 100.756 189.556 99.308L179.958 73.6614C179.416 72.2131 177.802 71.4784 176.354 72.0205Z" fill="#B94316"/>
<path d="M4.83078 88.4178C4.83078 88.4178 38.6139 78.9238 33.7091 100.797C32.8574 104.258 20.5963 122.078 35.2011 130.635C38.3371 132.472 41.9561 133.286 45.5904 133.267C52.1064 133.233 62.4363 131.979 67.0769 127.255C73.2962 120.924 66.5018 123.926 66.5018 123.926C66.5018 123.926 47.0996 131.907 37.1179 125.545C33.7096 123.373 32.1647 119.167 33.0902 115.233C33.5633 113.279 34.2836 111.393 35.2339 109.621C37.4047 105.555 47.326 87.0168 25.598 81.6296C20.5927 80.4376 13.3229 79.3669 3.9492 83.3135C-5.4245 87.2601 4.83078 88.4178 4.83078 88.4178Z" fill="#FE7F4F"/>
<path d="M71.6194 119.032L65.3261 121.387C63.1537 122.2 62.0517 124.62 62.8648 126.793L63.1767 127.626C63.9898 129.799 66.41 130.901 68.5824 130.088L74.8757 127.732C77.0481 126.919 78.1501 124.499 77.337 122.327L77.0251 121.493C76.212 119.321 73.7918 118.219 71.6194 119.032Z" fill="#E25C2A"/>
<path d="M82.2526 108.678L72.9257 112.168C70.7533 112.981 69.6513 115.402 70.4644 117.574L74.9618 129.591C75.7748 131.763 78.195 132.865 80.3675 132.052L89.6944 128.561C91.8668 127.748 92.9688 125.328 92.1557 123.156L87.6583 111.139C86.8453 108.967 84.4251 107.865 82.2526 108.678Z" fill="#EE6A39"/>
<path d="M97.7791 99.4258L83.8701 104.631C81.6976 105.445 80.5956 107.865 81.4087 110.037L88.2604 128.345C89.0735 130.517 91.4937 131.619 93.6661 130.806L107.575 125.6C109.748 124.787 110.85 122.367 110.037 120.195L103.185 101.887C102.372 99.7147 99.9516 98.6127 97.7791 99.4258Z" fill="#E25C2A"/>
<path d="M100.726 95.6343L100.594 95.6837C99.1457 96.2258 98.4111 97.8392 98.9531 99.2875L108.552 124.934C109.094 126.382 110.707 127.117 112.156 126.575L112.287 126.526C113.736 125.984 114.47 124.37 113.928 122.922L104.33 97.2752C103.788 95.827 102.174 95.0923 100.726 95.6343Z" fill="#B94316"/>
<path d="M136.244 79.2954C135.743 79.2398 135.283 78.9921 134.961 78.6043C134.64 78.2166 134.481 77.719 134.518 77.2164L135.556 58.2604C135.618 57.1281 136.574 56.2678 137.659 56.3679L139.171 56.5079C140.256 56.608 141.033 57.6279 140.881 58.7523L138.331 77.5683C138.272 78.0695 138.023 78.5288 137.634 78.8505C137.245 79.1722 136.747 79.3316 136.244 79.2954Z" fill="#E25C2A"/>
<path d="M127.282 80.9299C127.126 80.9756 126.963 80.9903 126.802 80.9729C126.64 80.9556 126.484 80.9066 126.341 80.8288C126.199 80.751 126.073 80.6459 125.971 80.5195C125.869 80.393 125.793 80.2478 125.747 80.092L122.041 68.3003C121.934 67.965 121.963 67.6006 122.124 67.2871C122.284 66.9735 122.563 66.7365 122.898 66.628L123.857 66.3385C124.022 66.2905 124.195 66.2771 124.365 66.2992C124.535 66.3213 124.699 66.3784 124.846 66.4669C124.992 66.5555 125.119 66.6735 125.218 66.8136C125.317 66.9536 125.386 67.1127 125.421 67.2807L128.167 79.362C128.244 79.6867 128.195 80.0284 128.031 80.319C127.867 80.6095 127.6 80.8276 127.282 80.9299Z" fill="#E25C2A"/>
<path d="M122.281 87.7299C121.617 88.5526 120.282 88.5428 119.254 87.7076L101.002 72.8785C99.912 71.9928 99.5903 70.5266 100.295 69.6544L101.277 68.438C101.981 67.5654 103.428 67.637 104.46 68.5954L121.73 84.6409C122.702 85.5445 122.946 86.9071 122.281 87.7299Z" fill="#E25C2A"/>
<path d="M130.718 126.032C131.188 126.213 131.57 126.57 131.782 127.027C131.994 127.484 132.021 128.006 131.856 128.482L126.012 146.544C125.662 147.623 124.518 148.21 123.495 147.837L122.068 147.316C121.044 146.942 120.553 145.757 120.988 144.709L128.259 127.168C128.443 126.698 128.802 126.318 129.26 126.106C129.719 125.894 130.241 125.868 130.718 126.032Z" fill="#E25C2A"/>
<path d="M139.799 126.74C139.962 126.735 140.123 126.763 140.275 126.821C140.427 126.879 140.565 126.966 140.683 127.078C140.801 127.19 140.896 127.323 140.962 127.472C141.028 127.62 141.065 127.78 141.069 127.942L141.641 140.289C141.66 140.641 141.538 140.986 141.303 141.248C141.067 141.51 140.738 141.668 140.386 141.687L139.384 141.722C139.213 141.727 139.042 141.695 138.883 141.631C138.724 141.566 138.581 141.469 138.461 141.346C138.342 141.223 138.249 141.076 138.19 140.915C138.13 140.755 138.104 140.583 138.113 140.412L138.544 128.03C138.552 127.696 138.687 127.379 138.919 127.14C139.152 126.901 139.466 126.758 139.799 126.74Z" fill="#E25C2A"/>
<path d="M146.371 121.443C147.223 120.817 148.512 121.167 149.292 122.237L163.152 141.235C163.98 142.37 163.916 143.87 163.012 144.533L161.752 145.459C160.848 146.123 159.467 145.684 158.715 144.494L146.115 124.57C145.406 123.448 145.519 122.069 146.371 121.443Z" fill="#E25C2A"/>
</svg>
