<svg width="71" height="83" viewBox="0 0 71 83" fill="none" xmlns="http://www.w3.org/2000/svg">
<circle cx="35.5" cy="35.5" r="35.5" fill="#E25C2A"/>
<circle cx="36" cy="77" r="6" fill="#E25C2A"/>
<path d="M31.5 81L10.5 60.5L60 61L40.5 81H31.5Z" fill="#E25C2A"/>
<circle cx="36" cy="36" r="15" fill="white"/>
<path fill-rule="evenodd" clip-rule="evenodd" d="M20 36C20 39.1645 20.9384 42.2579 22.6965 44.8891C24.4546 47.5203 26.9534 49.5711 29.8771 50.7821C32.8007 51.9931 36.0177 52.3099 39.1214 51.6926C42.2251 51.0752 45.0761 49.5513 47.3137 47.3137C49.5513 45.0761 51.0752 42.2251 51.6926 39.1214C52.3099 36.0177 51.9931 32.8007 50.7821 29.8771C49.5711 26.9535 47.5203 24.4546 44.8891 22.6965C42.2579 20.9384 39.1645 20 36 20C31.7565 20 27.6869 21.6857 24.6863 24.6863C21.6857 27.6869 20 31.7565 20 36ZM36.2045 46.7382C36.4909 47.0655 36.9716 46.9939 37.5954 46.9581C38.3317 46.9121 38.1067 47.4235 37.1965 48.0422C35.7903 49.0189 32.8194 49.341 31.0604 47.7967C27.2969 44.4679 30.2525 39.6817 32.2774 38.1783C32.0002 38.0354 31.688 37.9744 31.3774 38.0025C31.0668 38.0305 30.7706 38.1465 30.5235 38.3368C30.14 38.1476 30.0121 37.8818 30.1809 37.5392C30.3769 36.9651 30.7047 36.4449 31.1381 36.0204C31.5714 35.596 32.0982 35.279 32.6762 35.0949C32.8521 34.7237 32.9279 34.313 32.8961 33.9035C32.8981 33.7532 32.8634 33.6047 32.795 33.4708C32.7267 33.3369 32.6268 33.2217 32.5039 33.1351C32.3811 33.0485 32.239 32.9931 32.0899 32.9738C31.9409 32.9544 31.7893 32.9716 31.6484 33.024C31.1371 33.1518 30.6258 33.4842 30.3189 33.3257V33.3001C22.4545 26.4839 35.1767 17.7245 40.5868 27.3941C40.8454 27.3267 41.1122 27.2958 41.3793 27.302C42.7855 27.3276 43.9054 28.3247 43.8798 29.5264C43.8751 29.8546 43.7833 30.1758 43.6139 30.457C42.4378 29.2939 40.8863 28.587 39.2368 28.4628C36.4091 28.0537 32.1342 28.7082 30.7383 31.9195C31.1161 31.4428 31.59 31.0508 32.1291 30.7689C33.6221 29.9441 35.3017 29.5163 37.0073 29.5264C39.8044 29.5008 41.497 30.3957 42.6321 31.5104C43.1624 32.0368 43.5792 32.6663 43.8568 33.36C44.1344 34.0537 44.267 34.797 44.2464 35.5439C44.2258 36.2908 44.0525 37.0256 43.737 37.7029C43.4216 38.3803 42.9707 38.9858 42.4123 39.4823C41.443 40.2196 40.2782 40.6553 39.063 40.7351C38.5741 40.7344 38.0875 40.6691 37.6158 40.5407C37.2272 40.372 37.0329 40.2339 37.0329 39.9834C37.0329 39.8709 37.2272 39.7021 37.4471 39.7021H37.8664C39.0374 39.7021 40.7657 38.3113 40.7657 35.412C40.7657 33.1825 39.2624 30.7792 36.9767 30.8405C36.8401 30.8277 36.7023 30.8433 36.572 30.8864C36.4417 30.9296 36.3218 30.9992 36.2199 31.0911C36.1074 31.2087 36 31.4797 35.9693 32.1138C35.9437 32.6711 35.9438 36.1278 35.9182 39.3033C35.9182 41.86 35.9642 43.6548 35.9693 44.3503C35.9437 45.4394 35.908 46.4212 36.2045 46.7587V46.7382Z" fill="#E45721"/>
</svg>
